# xmcd
#
# Track frame offsets:
#	150
#	25765
#	43947
#	63072
#	82085
#	99865
#	115820
#	135547
#	161390
#	177315
#	191685
#	208477
#
# Disc length: 3134 seconds
#
# Revision: 0
# Processed by: cddbd v1.5.1PL2 Copyright (c) Steve Scherf et al.
# Submitted via: dBpowerAMP V4.0
#
DISCID=a00c3c0c
DTITLE=Eddie Bo - Hole In It
DYEAR=1998
DGENRE=Soul
TTITLE0=You Got A Hole In It
TTITLE1=Stink Bomb
TTITLE2=Back Up This Train
TTITLE3=Down By The River
TTITLE4=It Must Be Love
TTITLE5=Blackbird
TTITLE6=Louberta
TTITLE7=Piano Roll
TTITLE8=Hey Senorita
TTITLE9=Sister Lucie
TTITLE10=I Know You Mardi Gras
TTITLE11=I Wanna Be In That Number
EXTD=
EXTT0=
EXTT1=
EXTT2=
EXTT3=
EXTT4=
EXTT5=
EXTT6=
EXTT7=
EXTT8=
EXTT9=
EXTT10=
EXTT11=
PLAYORDER=
